<svg width="1023.81" height="695.279" xmlns="http://www.w3.org/2000/svg" xmlns:xlink="http://www.w3.org/1999/xlink" id="svg520" xml:space="preserve" overflow="hidden"><defs id="defs524"><clipPath id="clip0"><rect x="0" y="7" width="1033" height="714" id="rect9"/></clipPath><clipPath id="clip1"><rect x="908" y="274" width="41" height="41" id="rect12"/></clipPath><clipPath id="clip2"><rect x="908" y="274" width="41" height="41" id="rect15"/></clipPath><clipPath id="clip3"><rect x="908" y="274" width="41" height="41" id="rect18"/></clipPath><clipPath id="clip4"><rect x="908" y="329" width="41" height="41" id="rect21"/></clipPath><clipPath id="clip5"><rect x="908" y="329" width="41" height="41" id="rect24"/></clipPath><clipPath id="clip6"><rect x="908" y="329" width="41" height="41" id="rect27"/></clipPath><clipPath id="clip7"><rect x="908" y="384" width="41" height="41" id="rect30"/></clipPath><clipPath id="clip8"><rect x="908" y="384" width="41" height="41" id="rect33"/></clipPath><clipPath id="clip9"><rect x="908" y="384" width="41" height="41" id="rect36"/></clipPath><clipPath id="clip10"><rect x="908" y="439" width="41" height="41" id="rect39"/></clipPath><clipPath id="clip11"><rect x="908" y="439" width="41" height="41" id="rect42"/></clipPath><clipPath id="clip12"><rect x="908" y="439" width="41" height="41" id="rect45"/></clipPath><clipPath id="clip13"><rect x="910" y="107" width="40" height="40" id="rect48"/></clipPath><clipPath id="clip14"><rect x="910" y="107" width="40" height="40" id="rect51"/></clipPath><clipPath id="clip15"><rect x="910" y="107" width="40" height="40" id="rect54"/></clipPath></defs><g id="g558" transform="matrix(3.77953 0 0 3.77953 93.4733 6.99448)"><g id="g271" clip-path="url(#clip0)" transform="matrix(0.264583 0 0 0.264583 -24.7315 -8.39131)"><text id="text59" font-family="Bahnschrift,Bahnschrift_MSFontService,Arial" font-weight="700" font-size="37" transform="translate(23.1849 55)">Vízrendszer</text><text id="text61" font-family="Bahnschrift,Bahnschrift_MSFontService,Arial" font-weight="400" font-size="32" transform="translate(23.1849 117)">Ház</text><text id="text63" font-family="Bahnschrift,Bahnschrift_MSFontService,Arial" font-weight="400" font-size="32" transform="translate(591.185 117)">Kútakna</text><path d="M892 659 951.145 659" id="path65" stroke="#000000" stroke-width="8" stroke-linecap="round" stroke-miterlimit="8" fill="none" fill-rule="evenodd"/><path d="M910 674 933.547 674" id="path67" stroke="#000000" stroke-width="8" stroke-linecap="round" stroke-miterlimit="8" fill="none" fill-rule="evenodd"/><path d="M684 650 684 602 708 626 732 602 732 650 708 626Z" id="path69" fill-rule="evenodd"/><path d="M775 650 775 602 799.5 626 824 602 824 650 799.5 626Z" id="path71" fill-rule="evenodd"/><path d="M732.5 626.5 775.412 626.5" id="path73" stroke="#000000" stroke-width="5.33333" stroke-miterlimit="8" fill="none" fill-rule="evenodd"/><path d="M758.167 577.78 758.167 626.01 752.833 626.01 752.833 577.78ZM743.863 592.436 755.5 572.488 767.137 592.436C767.879 593.708 767.449 595.341 766.177 596.083 764.905 596.826 763.272 596.396 762.53 595.124L753.197 579.124 757.803 579.124 748.47 595.124C747.728 596.396 746.095 596.826 744.823 596.083 743.551 595.341 743.121 593.709 743.863 592.436Z" id="path75"/><path d="M829.78 623.833 921.032 623.833 921.032 629.167 829.78 629.167ZM844.436 638.137 824.488 626.5 844.436 614.863C845.709 614.121 847.341 614.551 848.083 615.823 848.826 617.095 848.396 618.728 847.124 619.47L831.124 628.803 831.124 624.197 847.124 633.53C848.396 634.272 848.826 635.905 848.083 637.177 847.341 638.449 845.709 638.879 844.436 638.137Z" id="path77"/><path d="M921.5 624.5 921.5 661.123" id="path79" stroke="#000000" stroke-width="5.33333" stroke-miterlimit="8" fill="none" fill-rule="evenodd"/><g id="g87" clip-path="url(#clip1)"><g id="g85" clip-path="url(#clip2)"><g id="g83" clip-path="url(#clip3)"><path d="M929.58 274.453C928.994 273.857 928.036 273.848 927.44 274.434 927.433 274.44 927.427 274.446 927.42 274.453 926.866 275.058 913.849 289.388 913.849 300.349 913.849 310.071 918.778 315 928.5 315 938.222 315 943.151 310.072 943.151 300.349 943.151 289.388 930.133 275.058 929.58 274.453Z" id="path81" fill="#FF3399"/></g></g></g><g id="g95" clip-path="url(#clip4)"><g id="g93" clip-path="url(#clip5)"><g id="g91" clip-path="url(#clip6)"><path d="M929.58 329.453C928.994 328.857 928.036 328.848 927.44 329.434 927.433 329.44 927.427 329.446 927.42 329.453 926.866 330.058 913.849 344.388 913.849 355.349 913.849 365.071 918.778 370 928.5 370 938.222 370 943.151 365.072 943.151 355.349 943.151 344.388 930.133 330.058 929.58 329.453Z" id="path89" fill="#70AD47"/></g></g></g><g id="g103" clip-path="url(#clip7)"><g id="g101" clip-path="url(#clip8)"><g id="g99" clip-path="url(#clip9)"><path d="M929.58 384.453C928.994 383.857 928.036 383.848 927.44 384.434 927.433 384.44 927.427 384.446 927.42 384.453 926.866 385.058 913.849 399.388 913.849 410.349 913.849 420.071 918.778 425 928.5 425 938.222 425 943.151 420.072 943.151 410.349 943.151 399.388 930.133 385.058 929.58 384.453Z" id="path97" fill="#5B9BD5"/></g></g></g><g id="g111" clip-path="url(#clip10)"><g id="g109" clip-path="url(#clip11)"><g id="g107" clip-path="url(#clip12)"><path d="M929.58 439.453C928.994 438.857 928.036 438.848 927.44 439.434 927.433 439.44 927.427 439.446 927.42 439.453 926.866 440.058 913.849 454.388 913.849 465.349 913.849 475.071 918.778 480 928.5 480 938.222 480 943.151 475.072 943.151 465.349 943.151 454.388 930.133 440.058 929.58 439.453Z" id="path105" fill="#FF0000"/></g></g></g><path d="M38.4806 8.80588C38.1502 8.44689 37.7031 8.24552 37.2371 8.24552 37.2342 8.24552 37.2312 8.24552 37.2283 8.24552L26.5433 8.23855 26.5433 3.84917 30.3951 3.84917C31.3688 3.84917 32.1582 2.98754 32.1582 1.92465 32.1582 0.861638 31.3687 0 30.395 0L19.165 0C18.1913 0 17.402 0.861638 17.402 1.92453 17.402 2.9874 18.1913 3.84905 19.165 3.84905L23.017 3.84905 23.017 8.23614 11.868 8.22879C6.62415 8.26049 2.35789 12.9434 2.35789 18.6677L2.35789 27.1509 1.76302 27.1509C0.78933 27.1509 0 28.0126 0 29.0755 0 30.1384 0.78933 31 1.76302 31L16.3597 31C17.3334 31 18.1228 30.1384 18.1228 29.0755 18.1228 28.0126 17.3334 27.1509 16.3597 27.1509L15.7649 27.1509 15.7649 22.7248 37.237 22.7248C38.2107 22.7248 39 21.8632 39 20.8003L39 10.1702C39.0001 9.65801 38.8131 9.16702 38.4806 8.80588Z" id="path113" fill-rule="evenodd" transform="matrix(-1 0 0 1 949 174)"/><path d="M751.833 501.312 751.833 181.833 905.695 181.833 905.695 187.167 754.5 187.167 757.167 184.5 757.167 501.312ZM891.038 172.863 910.987 184.5 891.038 196.137C889.766 196.879 888.133 196.449 887.391 195.177 886.649 193.905 887.079 192.272 888.351 191.53L904.351 182.197 904.351 186.803 888.351 177.47C887.079 176.728 886.649 175.095 887.391 173.823 888.133 172.551 889.766 172.121 891.038 172.863Z" id="path115"/><path d="M721 540C721 521.222 736.222 506 755 506 773.778 506 789 521.222 789 540 789 558.778 773.778 574 755 574 736.222 574 721 558.778 721 540ZM726.982 540C726.982 555.474 739.526 568.018 755 568.018 770.474 568.018 783.018 555.474 783.018 540 783.018 524.526 770.474 511.982 755 511.982 739.526 511.982 726.982 524.526 726.982 540Z" id="path117" fill-rule="evenodd"/><path d="M751.833 500.714 751.833 291.833 903.71 291.833 903.71 297.167 754.5 297.167 757.167 294.5 757.167 500.714ZM889.053 282.863 909.002 294.5 889.053 306.137C887.781 306.879 886.148 306.449 885.406 305.177 884.664 303.905 885.094 302.272 886.366 301.53L902.366 292.197 902.366 296.803 886.366 287.47C885.094 286.728 884.664 285.095 885.406 283.823 886.148 282.551 887.781 282.121 889.053 282.863Z" id="path119"/><path d="M751.833 500.755 751.833 346.833 903.71 346.833 903.71 352.167 754.5 352.167 757.167 349.5 757.167 500.755ZM889.053 337.863 909.002 349.5 889.053 361.137C887.781 361.879 886.148 361.449 885.406 360.177 884.664 358.905 885.094 357.272 886.366 356.53L902.366 347.197 902.366 351.803 886.366 342.47C885.094 341.728 884.664 340.095 885.406 338.823 886.148 337.551 887.781 337.121 889.053 337.863Z" id="path121"/><path d="M751.833 500.796 751.833 401.833 903.71 401.833 903.71 407.167 754.5 407.167 757.167 404.5 757.167 500.796ZM889.053 392.863 909.002 404.5 889.053 416.137C887.781 416.879 886.148 416.449 885.406 415.177 884.664 413.905 885.094 412.272 886.366 411.53L902.366 402.197 902.366 406.803 886.366 397.47C885.094 396.728 884.664 395.095 885.406 393.823 886.148 392.551 887.781 392.121 889.053 392.863Z" id="path123"/><path d="M751.833 500.836 751.833 456.833 903.71 456.833 903.71 462.167 754.5 462.167 757.167 459.5 757.167 500.836ZM889.053 447.863 909.002 459.5 889.053 471.137C887.781 471.879 886.148 471.449 885.406 470.177 884.664 468.905 885.094 467.272 886.366 466.53L902.366 457.197 902.366 461.803 886.366 452.47C885.094 451.728 884.664 450.095 885.406 448.823 886.148 447.551 887.781 447.121 889.053 447.863Z" id="path125"/><path d="M782 442 818 442 800 460 818 478 782 478 800 460Z" id="path127" fill="#FFFFFF" fill-rule="evenodd"/><path d="M775 484 775 435 799.5 459.5 824 435 824 484 799.5 459.5Z" id="path129" fill-rule="evenodd"/><path d="M782 388 818 388 800 405.5 818 423 782 423 800 405.5Z" id="path131" fill="#FFFFFF" fill-rule="evenodd"/><path d="M775 429 775 381 799.5 405 824 381 824 429 799.5 405Z" id="path133" fill-rule="evenodd"/><path d="M782 332 818 332 800 350 818 368 782 368 800 350Z" id="path135" fill="#FFFFFF" fill-rule="evenodd"/><path d="M775 374 775 325 799.5 349.5 824 325 824 374 799.5 349.5Z" id="path137" fill-rule="evenodd"/><path d="M782 277 818 277 800 295 818 313 782 313 800 295Z" id="path139" fill="#FFFFFF" fill-rule="evenodd"/><path d="M775 319 775 270 799.5 294.5 824 270 824 319 799.5 294.5Z" id="path141" fill-rule="evenodd"/><path d="M782 167 818 167 800 184.5 818 202 782 202 800 184.5Z" id="path143" fill="#FFFFFF" fill-rule="evenodd"/><path d="M775 208 775 159 799.5 183.5 824 159 824 208 799.5 183.5Z" id="path145" fill-rule="evenodd"/><path d="M295 694.5 221.001 694.5C210.783 694.5 202.5 686.217 202.5 676L202.5 529.5 313.5 529.5 313.5 676C313.5 686.217 305.217 694.5 295 694.5Z" id="path147" stroke="#000000" stroke-width="5.33333" stroke-miterlimit="8" fill="none" fill-rule="evenodd"/><path d="M520.166 693.5 360.834 693.5C345.738 693.5 333.5 681.262 333.5 666.166L333.5 529.5 547.5 529.5 547.5 666.166C547.5 681.262 535.262 693.5 520.166 693.5Z" id="path149" stroke="#000000" stroke-width="5.33333" stroke-miterlimit="8" fill="none" fill-rule="evenodd"/><text id="text151" font-family="Bahnschrift,Bahnschrift_MSFontService,Arial" font-weight="400" font-size="24" transform="translate(219.188 645)">Puffer</text><text id="text153" font-family="Bahnschrift,Bahnschrift_MSFontService,Arial" font-weight="400" font-size="24" transform="translate(285.854 645)">-</text><text id="text155" font-family="Bahnschrift,Bahnschrift_MSFontService,Arial" font-weight="400" font-size="24" transform="translate(223.188 674)">tartál</text><text id="text157" font-family="Bahnschrift,Bahnschrift_MSFontService,Arial" font-weight="400" font-size="24" transform="translate(281.688 674)">y</text><path d="M324.606 118 215.394 118C205.251 118 197 126.339 197 136.588L197 178.412C197 188.661 205.251 197 215.394 197L324.606 197C334.749 197 343 188.662 343 178.412L343 136.588C343 126.339 334.749 118 324.606 118ZM310.523 188.287 229.477 188.287 229.477 186.979C229.477 181.614 233.795 177.25 239.104 177.25L300.896 177.25C306.204 177.25 310.523 181.615 310.523 186.979ZM334.378 178.412C334.378 183.857 329.994 188.287 324.606 188.287L319.145 188.287 319.145 186.979C319.145 176.81 310.959 168.537 300.896 168.537L239.104 168.537C229.041 168.537 220.854 176.81 220.854 186.979L220.854 188.287 215.394 188.287C210.005 188.287 205.622 183.857 205.622 178.412L205.622 136.588C205.622 131.143 210.005 126.713 215.394 126.713L324.606 126.713C329.994 126.713 334.378 131.143 334.378 136.588Z" id="path159" fill-rule="evenodd"/><path d="M318.726 135 313.274 135C310.914 135 309 136.791 309 139 309 141.209 310.914 143 313.274 143L318.726 143C321.086 143 323 141.209 323 139 323 136.791 321.087 135 318.726 135Z" id="path161" fill-rule="evenodd"/><path d="M298.726 135 293.274 135C290.914 135 289 136.791 289 139 289 141.209 290.914 143 293.274 143L298.726 143C301.086 143 303 141.209 303 139 303 136.791 301.086 135 298.726 135Z" id="path163" fill-rule="evenodd"/><path d="M149.78 633.833 201.912 633.833 201.912 639.167 149.78 639.167ZM164.436 648.137 144.488 636.5 164.436 624.863C165.709 624.121 167.341 624.551 168.083 625.823 168.826 627.095 168.396 628.728 167.124 629.47L151.124 638.803 151.124 634.197 167.124 643.53C168.396 644.272 168.826 645.905 168.083 647.177 167.341 648.449 165.709 648.879 164.436 648.137Z" id="path165"/><path d="M0 2.66667-24.0003 2.66667-21.3336 0-21.3336 492.445-24.0003 489.778 95.952 489.778 95.952 495.111-26.6669 495.111-26.6669-2.66667 0-2.66667ZM81.2957 480.808 101.244 492.445 81.2957 504.081C80.0235 504.824 78.3907 504.394 77.6486 503.122 76.9065 501.85 77.3362 500.217 78.6084 499.475L94.6084 490.141 94.6084 494.748 78.6084 485.415C77.3362 484.673 76.9065 483.04 77.6486 481.768 78.3907 480.496 80.0235 480.066 81.2957 480.808Z" id="path167" transform="matrix(1 0 0 -1 95.5001 636.945)"/><path d="M197.5 173.167 149.5 173.167 152.167 170.5 152.167 611.23 149.5 608.563 197.336 608.563 197.336 613.897 146.833 613.897 146.833 167.833 197.5 167.833ZM182.68 599.593 202.628 611.23 182.68 622.867C181.407 623.609 179.775 623.179 179.033 621.907 178.29 620.635 178.72 619.002 179.992 618.26L195.992 608.927 195.992 613.533 179.992 604.2C178.72 603.458 178.29 601.825 179.033 600.553 179.775 599.281 181.407 598.851 182.68 599.593Z" id="path169"/><rect x="45" y="291" width="138" height="59" id="rect171" fill="#FFFFFF"/><path d="M0 299 568 299" id="path173" stroke="#000000" stroke-width="2" stroke-miterlimit="8" fill="none" fill-rule="evenodd"/><text id="text175" font-family="Bahnschrift,Bahnschrift_MSFontService,Arial" font-weight="400" font-size="32" transform="translate(23.1849 337)">Garázsakna</text><path d="M0-2.66667 534.148-2.66667 534.148 172.479 528.815 172.479 528.815 0 531.481 2.66667 0 2.66667ZM543.118 157.822 531.481 177.771 519.845 157.822C519.103 156.55 519.532 154.917 520.804 154.175 522.077 153.433 523.709 153.863 524.452 155.135L533.785 171.135 529.178 171.135 538.511 155.135C539.253 153.863 540.886 153.433 542.158 154.175 543.431 154.917 543.86 156.55 543.118 157.822Z" id="path177" transform="matrix(-1 0 0 1 753.982 349.5)"/><path d="M0-2.66667 352.001-2.66667 352.001 172.479 346.667 172.479 346.667 0 349.334 2.66667 0 2.66667ZM360.971 157.822 349.334 177.771 337.697 157.822C336.955 156.55 337.385 154.917 338.657 154.175 339.929 153.433 341.562 153.863 342.304 155.135L351.637 171.135 347.031 171.135 356.364 155.135C357.106 153.863 358.739 153.433 360.011 154.175 361.283 154.917 361.713 156.55 360.971 157.822Z" id="path179" transform="matrix(-1 0 0 1 754.834 349.5)"/><path d="M0 2.66667-148 2.66667-145.333 0-145.333 324.408-148 321.741 100.958 321.741 100.958 388.104 95.6244 388.104 95.6244 324.408 98.291 327.074-150.666 327.074-150.666-2.66667 0-2.66667ZM109.928 373.447 98.291 393.396 86.6543 373.447C85.9122 372.175 86.3419 370.542 87.614 369.8 88.8862 369.058 90.519 369.488 91.2611 370.76L100.594 386.76 95.9876 386.76 105.321 370.76C106.063 369.488 107.696 369.058 108.968 369.8 110.24 370.542 110.67 372.175 109.928 373.447Z" id="path181" transform="matrix(0 1 1 0 290.5 528.5)"/><path d="M0 2.66667-148 2.66667-145.333 0-145.333 137.732-148 135.065 100.958 135.065 100.958 200.751 95.6244 200.751 95.6244 137.732 98.291 140.398-150.666 140.398-150.666-2.66667 0-2.66667ZM109.928 186.095 98.291 206.044 86.6543 186.095C85.9122 184.823 86.3419 183.19 87.614 182.448 88.8862 181.706 90.519 182.135 91.2611 183.408L100.594 199.408 95.9876 199.408 105.321 183.408C106.063 182.135 107.696 181.706 108.968 182.448 110.24 183.19 110.67 184.823 109.928 186.095Z" id="path183" transform="matrix(0 1 1 0 477.5 528.5)"/><path d="M239 437 239 473 221 455 203 473 203 437 221 455Z" id="path185" fill="#FFFFFF" fill-rule="evenodd"/><path d="M197 431 246 431 221.5 455.5 246 480 197 480 221.5 455.5Z" id="path187" fill-rule="evenodd"/><path d="M307 437 307 473 289.5 455 272 473 272 437 289.5 455Z" id="path189" fill="#FFFFFF" fill-rule="evenodd"/><path d="M266 431 315 431 290.5 455.5 315 480 266 480 290.5 455.5Z" id="path191" fill-rule="evenodd"/><path d="M422 437 422 473 404 455 386 473 386 437 404 455Z" id="path193" fill="#FFFFFF" fill-rule="evenodd"/><path d="M380 431 429 431 404.5 455.5 429 480 380 480 404.5 455.5Z" id="path195" fill-rule="evenodd"/><path d="M495 437 495 473 477.5 455 460 473 460 437 477.5 455Z" id="path197" fill="#FFFFFF" fill-rule="evenodd"/><path d="M454 431 503 431 478.5 455.5 503 480 454 480 478.5 455.5Z" id="path199" fill-rule="evenodd"/><rect x="558" y="332" width="21" height="138" id="rect201" fill="#FFFFFF"/><path d="M0 0 0.000104987 640" id="path203" stroke="#000000" stroke-width="2" stroke-miterlimit="8" fill="none" fill-rule="evenodd" transform="matrix(1 0 0 -1 568 720)"/><g id="g213" clip-path="url(#clip13)"><g id="g211" clip-path="url(#clip14)"><g id="g209" clip-path="url(#clip15)"><path d="M942.5 115.333 935.417 115.333 935.417 113.25C935.417 111.625 934.125 110.333 932.5 110.333L927.5 110.333C925.875 110.333 924.583 111.625 924.583 113.25L924.583 115.333 917.5 115.333C916.583 115.333 915.833 116.083 915.833 117L915.833 118.667 944.167 118.667 944.167 117C944.167 116.083 943.417 115.333 942.5 115.333ZM927.083 113.25C927.083 113 927.25 112.833 927.5 112.833L932.5 112.833C932.75 112.833 932.917 113 932.917 113.25L932.917 115.333 927.083 115.333Z" id="path205"/><path d="M918.333 142C918.333 142.917 919.083 143.667 920 143.667L940 143.667C940.917 143.667 941.667 142.917 941.667 142L941.667 120.333 918.333 120.333ZM935.417 122.833 937.917 122.833 937.917 141.167 935.417 141.167ZM928.75 122.833 931.25 122.833 931.25 141.167 928.75 141.167ZM922.083 122.833 924.583 122.833 924.583 141.167 922.083 141.167Z" id="path207"/></g></g></g><path d="M751.833 501.232 751.833 124.833 904.952 124.833 904.952 130.167 754.5 130.167 757.167 127.5 757.167 501.232ZM890.295 115.863 910.244 127.5 890.295 139.137C889.023 139.879 887.39 139.449 886.648 138.177 885.906 136.905 886.336 135.272 887.608 134.53L903.608 125.197 903.608 129.803 887.608 120.47C886.336 119.728 885.906 118.095 886.648 116.823 887.39 115.551 889.023 115.121 890.295 115.863Z" id="path215"/><path d="M782 111 818 111 800 128.5 818 146 782 146 800 128.5Z" id="path217" fill="#FFFFFF" fill-rule="evenodd"/><path d="M775 152 775 103 799.5 127.5 824 103 824 152 799.5 127.5Z" id="path219" fill-rule="evenodd"/><text id="text221" font-family="Bahnschrift,Bahnschrift_MSFontService,Arial" font-weight="400" font-size="19" transform="translate(951.778 303)">Pink</text><text id="text223" font-family="Bahnschrift,Bahnschrift_MSFontService,Arial" font-weight="400" font-size="19" transform="translate(951.778 358)">Zöld</text><text id="text225" font-family="Bahnschrift,Bahnschrift_MSFontService,Arial" font-weight="400" font-size="19" transform="translate(951.778 414)">Kék</text><text id="text227" font-family="Bahnschrift,Bahnschrift_MSFontService,Arial" font-weight="400" font-size="19" transform="translate(951.778 466)">Piros</text><text id="text229" font-family="Bahnschrift,Bahnschrift_MSFontService,Arial" font-weight="400" font-size="19" transform="matrix(0.707107 -0.707107 0.707107 0.707107 799.338 96.9997)">Szelep</text><text id="text231" font-family="Bahnschrift,Bahnschrift_MSFontService,Arial" font-weight="400" font-size="19" transform="translate(799.738 547)">Szivattyú</text><text id="text233" font-family="Bahnschrift,Bahnschrift_MSFontService,Arial" font-weight="400" font-size="19" transform="translate(951.778 124)">Víznyelő</text><text id="text235" font-family="Bahnschrift,Bahnschrift_MSFontService,Arial" font-weight="400" font-size="19" transform="translate(951.778 146)">akn</text><text id="text237" font-family="Bahnschrift,Bahnschrift_MSFontService,Arial" font-weight="400" font-size="19" transform="translate(982.111 146)">a</text><text id="text239" font-family="Bahnschrift,Bahnschrift_MSFontService,Arial" font-weight="400" font-size="19" transform="translate(75.9967 684)">Keringet</text><text id="text241" font-family="Bahnschrift,Bahnschrift_MSFontService,Arial" font-weight="400" font-size="19" transform="translate(147.33 684)">ő</text><text id="text243" font-family="Bahnschrift,Bahnschrift_MSFontService,Arial" font-weight="400" font-size="19" transform="translate(157.497 684)">-</text><text id="text245" font-family="Bahnschrift,Bahnschrift_MSFontService,Arial" font-weight="400" font-size="19" transform="translate(83.9967 706)">szivatty</text><text id="text247" font-family="Bahnschrift,Bahnschrift_MSFontService,Arial" font-weight="400" font-size="19" transform="translate(148.163 706)">ú</text><text id="text249" font-family="Bahnschrift,Bahnschrift_MSFontService,Arial" font-weight="400" font-size="19" transform="translate(356.234 165)">Beltéri egység</text><text id="text251" font-family="Bahnschrift,Bahnschrift_MSFontService,Arial" font-weight="400" font-size="19" transform="translate(951.778 185)">Kerti</text><text id="text253" font-family="Bahnschrift,Bahnschrift_MSFontService,Arial" font-weight="400" font-size="19" transform="translate(951.778 207)">csa</text><text id="text255" font-family="Bahnschrift,Bahnschrift_MSFontService,Arial" font-weight="400" font-size="19" transform="translate(980.778 207)">p</text><text id="text257" font-family="Bahnschrift,Bahnschrift_MSFontService,Arial" font-weight="700" font-size="19" transform="translate(910.707 261)">Öntöző körök</text><path d="M733.5 553.5 755 516.5 776.5 553.5Z" id="path259" stroke="#000000" stroke-width="1.33333" stroke-miterlimit="8" fill-rule="evenodd"/><path d="M120.5 661C106.969 661 96 650.031 96 636.5 96 622.969 106.969 612 120.5 612 134.031 612 145 622.969 145 636.5 145 650.031 134.031 661 120.5 661ZM120.5 656.689C131.65 656.689 140.689 647.65 140.689 636.5 140.689 625.35 131.65 616.311 120.5 616.311 109.35 616.311 100.311 625.35 100.311 636.5 100.311 647.65 109.35 656.689 120.5 656.689Z" id="path261" fill-rule="evenodd"/><path d="M131.5 652.5 104.5 637 131.5 621.5Z" id="path263" stroke="#000000" stroke-width="1.33333" stroke-miterlimit="8" fill-rule="evenodd"/><text id="text265" font-family="Bahnschrift,Bahnschrift_MSFontService,Arial" font-weight="400" font-size="24" transform="translate(396.941 645)">Öntöző</text><text id="text267" font-family="Bahnschrift,Bahnschrift_MSFontService,Arial" font-weight="400" font-size="24" transform="translate(471.441 645)">-</text><text id="text269" font-family="Bahnschrift,Bahnschrift_MSFontService,Arial" font-weight="400" font-size="24" transform="translate(404.855 674)">tartály</text></g></g></svg>