<?xml version="1.0" encoding="UTF-8" standalone="no"?>
<svg
   xmlns:dc="http://purl.org/dc/elements/1.1/"
   xmlns:cc="http://creativecommons.org/ns#"
   xmlns:rdf="http://www.w3.org/1999/02/22-rdf-syntax-ns#"
   xmlns:svg="http://www.w3.org/2000/svg"
   xmlns="http://www.w3.org/2000/svg"
   xmlns:sodipodi="http://sodipodi.sourceforge.net/DTD/sodipodi-0.dtd"
   xmlns:inkscape="http://www.inkscape.org/namespaces/inkscape"
   viewBox="0 0 707.96002 666.65332"
   height="666.65332"
   width="707.96002"
   xml:space="preserve"
   id="svg2"
   version="1.1"
   sodipodi:docname="GitHub-Mark.svg"
   inkscape:version="0.92.3 (2405546, 2018-03-11)"><sodipodi:namedview
     pagecolor="#ffffff"
     bordercolor="#666666"
     borderopacity="1"
     objecttolerance="10"
     gridtolerance="10"
     guidetolerance="10"
     inkscape:pageopacity="0"
     inkscape:pageshadow="2"
     inkscape:window-width="1920"
     inkscape:window-height="1027"
     id="namedview98"
     showgrid="false"
     inkscape:snap-page="true"
     inkscape:snap-bbox="true"
     inkscape:snap-bbox-midpoints="true"
     inkscape:zoom="0.50064162"
     inkscape:cx="551.53033"
     inkscape:cy="228.50915"
     inkscape:window-x="1358"
     inkscape:window-y="-8"
     inkscape:window-maximized="1"
     inkscape:current-layer="svg2" /><metadata
     id="metadata8"><rdf:RDF><cc:Work
         rdf:about=""><dc:format>image/svg+xml</dc:format><dc:type
           rdf:resource="http://purl.org/dc/dcmitype/StillImage" /></cc:Work></rdf:RDF></metadata><defs
     id="defs6" /><g
     id="g1096"
     transform="matrix(4.252693,0,0,4.252693,-1634.0604,-37.122041)"><path
       inkscape:connector-curvature="0"
       d="m 467.47865,8.5800131 c -44.46266,0 -80.51733,36.0479989 -80.51733,80.5173309 0,35.574666 23.07067,65.755996 55.06267,76.402666 4.024,0.74533 5.50133,-1.74667 5.50133,-3.87333 0,-1.92 -0.0747,-8.26267 -0.10933,-14.99067 -22.4,4.87067 -27.12667,-9.5 -27.12667,-9.5 -3.66266,-9.30667 -8.94,-11.78133 -8.94,-11.78133 -7.30533,-4.99734 0.55067,-4.89467 0.55067,-4.89467 8.08533,0.56667 12.34267,8.29867 12.34267,8.29867 7.18133,12.308 18.836,8.74933 23.43066,6.692 0.72267,-5.204 2.80934,-8.75734 5.112,-10.76667 -17.884,-2.036 -36.684,-8.94 -36.684,-39.791999 0,-8.790666 3.14534,-15.973333 8.296,-21.611999 -0.836,-2.029334 -3.592,-10.217333 0.78,-21.308 0,0 6.76134,-2.164 22.148,8.253333 6.42267,-1.784 13.31067,-2.678666 20.15333,-2.709333 6.84267,0.03067 13.736,0.925333 20.17067,2.709333 15.368,-10.417333 22.12,-8.253333 22.12,-8.253333 4.38267,11.090667 1.62533,19.278666 0.78933,21.308 5.16267,5.638666 8.28667,12.821333 8.28667,21.611999 0,30.925329 -18.836,37.734669 -36.76533,39.727999 2.888,2.49867 5.46133,7.39867 5.46133,14.91067 0,10.77333 -0.0933,19.444 -0.0933,22.096 0,2.14266 1.44933,4.65333 5.53066,3.86266 31.97467,-10.65866 55.016,-40.82933 55.016,-76.391996 0,-44.469332 -36.04933,-80.5173309 -80.516,-80.5173309"
       style="fill:#1b1817;fill-opacity:1;fill-rule:evenodd;stroke:none;stroke-width:0.13333333"
       id="path18" /><path
       inkscape:connector-curvature="0"
       d="m 417.45732,124.18534 c -0.17733,0.40134 -0.80666,0.52 -1.38,0.24534 -0.584,-0.26267 -0.912,-0.808 -0.72266,-1.20934 0.17333,-0.41066 0.804,-0.52533 1.38666,-0.252 0.58534,0.264 0.91867,0.81467 0.716,1.216 v 0"
       style="fill:#1b1817;fill-opacity:1;fill-rule:nonzero;stroke:none;stroke-width:0.13333333"
       id="path20" /><path
       inkscape:connector-curvature="0"
       d="m 420.71866,127.82268 c -0.384,0.356 -1.13467,0.19066 -1.644,-0.372 -0.52667,-0.56134 -0.62534,-1.312 -0.236,-1.67334 0.396,-0.35466 1.124,-0.188 1.652,0.372 0.52666,0.568 0.62933,1.31334 0.228,1.67334 v 0"
       style="fill:#1b1817;fill-opacity:1;fill-rule:nonzero;stroke:none;stroke-width:0.13333333"
       id="path22" /><path
       inkscape:connector-curvature="0"
       d="m 423.89332,132.46001 c -0.49333,0.34267 -1.3,0.0213 -1.79866,-0.69467 -0.49334,-0.716 -0.49334,-1.57466 0.0107,-1.91866 0.5,-0.344 1.29467,-0.0333 1.8,0.676 0.492,0.728 0.492,1.58666 -0.012,1.93733 v 0"
       style="fill:#1b1817;fill-opacity:1;fill-rule:nonzero;stroke:none;stroke-width:0.13333333"
       id="path24" /><path
       inkscape:connector-curvature="0"
       d="m 428.24266,136.94001 c -0.44134,0.48667 -1.38134,0.356 -2.06934,-0.308 -0.704,-0.64933 -0.9,-1.57067 -0.45733,-2.05733 0.44667,-0.488 1.392,-0.35067 2.08533,0.308 0.69867,0.648 0.912,1.576 0.44134,2.05733 v 0"
       style="fill:#1b1817;fill-opacity:1;fill-rule:nonzero;stroke:none;stroke-width:0.13333333"
       id="path26" /><path
       inkscape:connector-curvature="0"
       d="m 434.24266,139.54134 c -0.19467,0.63067 -1.1,0.91734 -2.012,0.64934 -0.91067,-0.276 -1.50667,-1.01467 -1.32267,-1.652 0.18933,-0.63467 1.09867,-0.93334 2.01733,-0.64667 0.90934,0.27467 1.50667,1.008 1.31734,1.64933 v 0"
       style="fill:#1b1817;fill-opacity:1;fill-rule:nonzero;stroke:none;stroke-width:0.13333333"
       id="path28" /><path
       inkscape:connector-curvature="0"
       d="m 440.83199,140.02401 c 0.0227,0.664 -0.75067,1.21467 -1.708,1.22667 -0.96267,0.0213 -1.74133,-0.516 -1.752,-1.16934 0,-0.67066 0.756,-1.216 1.71867,-1.232 0.95733,-0.0187 1.74133,0.51467 1.74133,1.17467 v 0"
       style="fill:#1b1817;fill-opacity:1;fill-rule:nonzero;stroke:none;stroke-width:0.13333333"
       id="path30" /><path
       inkscape:connector-curvature="0"
       d="m 446.96399,138.98001 c 0.11467,0.648 -0.55067,1.31333 -1.50133,1.49067 -0.93467,0.17066 -1.8,-0.22934 -1.91867,-0.872 -0.116,-0.664 0.56133,-1.32934 1.49467,-1.50134 0.952,-0.16533 1.804,0.224 1.92533,0.88267 v 0"
       style="fill:#1b1817;fill-opacity:1;fill-rule:nonzero;stroke:none;stroke-width:0.13333333"
       id="path32" /></g></svg>